<svg width="160" height="86" viewBox="0 0 160 86" fill="none" xmlns="http://www.w3.org/2000/svg">
<rect x="0.5" y="0.5" width="159" height="85" fill="white" fill-opacity="0.9"/>
<rect x="0.5" y="0.5" width="159" height="85" stroke="#535755"/>
<path d="M27.2508 38.096C27.0268 38.096 26.7815 38.0907 26.5148 38.08C26.2588 38.0693 25.9975 38.0533 25.7308 38.032C25.4748 38.0107 25.2188 37.984 24.9628 37.952C24.7068 37.92 24.4721 37.8773 24.2588 37.824V27.072C24.4721 27.0187 24.7068 26.976 24.9628 26.944C25.2188 26.912 25.4748 26.8853 25.7308 26.864C25.9975 26.8427 26.2588 26.8267 26.5148 26.816C26.7708 26.8053 27.0108 26.8 27.2348 26.8C27.8748 26.8 28.4721 26.848 29.0268 26.944C29.5921 27.04 30.0775 27.2053 30.4828 27.44C30.8988 27.664 31.2241 27.9627 31.4588 28.336C31.6935 28.7093 31.8108 29.168 31.8108 29.712C31.8108 30.32 31.6668 30.8213 31.3788 31.216C31.0908 31.6 30.7068 31.888 30.2268 32.08C30.8775 32.272 31.3948 32.576 31.7788 32.992C32.1628 33.408 32.3548 33.9947 32.3548 34.752C32.3548 35.8613 31.9441 36.6987 31.1228 37.264C30.3121 37.8187 29.0215 38.096 27.2508 38.096ZM25.7948 32.832V36.736C25.9121 36.7467 26.0508 36.7573 26.2108 36.768C26.3495 36.7787 26.5095 36.7893 26.6908 36.8C26.8828 36.8 27.1015 36.8 27.3468 36.8C27.8055 36.8 28.2375 36.7733 28.6428 36.72C29.0588 36.656 29.4215 36.5493 29.7308 36.4C30.0401 36.2507 30.2855 36.0427 30.4668 35.776C30.6588 35.5093 30.7548 35.1733 30.7548 34.768C30.7548 34.4053 30.6855 34.1013 30.5468 33.856C30.4081 33.6 30.2055 33.3973 29.9388 33.248C29.6828 33.0987 29.3735 32.992 29.0108 32.928C28.6481 32.864 28.2428 32.832 27.7948 32.832H25.7948ZM25.7948 31.584H27.4268C27.8108 31.584 28.1735 31.5573 28.5148 31.504C28.8561 31.4507 29.1495 31.3547 29.3948 31.216C29.6508 31.0773 29.8481 30.896 29.9868 30.672C30.1361 30.448 30.2108 30.1653 30.2108 29.824C30.2108 29.504 30.1361 29.2373 29.9868 29.024C29.8375 28.8 29.6295 28.624 29.3628 28.496C29.1068 28.3573 28.8028 28.256 28.4508 28.192C28.0988 28.128 27.7255 28.096 27.3308 28.096C26.9361 28.096 26.6268 28.1013 26.4028 28.112C26.1788 28.1227 25.9761 28.1387 25.7948 28.16V31.584ZM37.5001 33.888C37.2121 33.888 36.9294 33.8987 36.6521 33.92C36.3854 33.9307 36.1454 33.9627 35.9321 34.016V36.88C35.9961 36.8907 36.0867 36.9013 36.2041 36.912C36.3321 36.9227 36.4654 36.9333 36.6041 36.944C36.7534 36.944 36.9027 36.9493 37.0521 36.96C37.2014 36.96 37.3347 36.96 37.4521 36.96C38.1027 36.96 38.6041 36.8373 38.9561 36.592C39.3081 36.3467 39.4841 35.952 39.4841 35.408C39.4841 35.1413 39.4254 34.912 39.3081 34.72C39.2014 34.528 39.0521 34.3733 38.8601 34.256C38.6787 34.128 38.4707 34.0373 38.2361 33.984C38.0014 33.92 37.7561 33.888 37.5001 33.888ZM34.4441 29.68H35.9321V32.864C36.1134 32.8213 36.3747 32.7787 36.7161 32.736C37.0681 32.6933 37.4041 32.672 37.7241 32.672C38.1614 32.672 38.5774 32.7253 38.9721 32.832C39.3667 32.928 39.7134 33.088 40.0121 33.312C40.3107 33.5253 40.5454 33.808 40.7161 34.16C40.8974 34.5013 40.9881 34.912 40.9881 35.392C40.9881 35.8933 40.9027 36.32 40.7321 36.672C40.5614 37.024 40.3214 37.312 40.0121 37.536C39.7027 37.76 39.3294 37.92 38.8921 38.016C38.4547 38.1227 37.9747 38.176 37.4521 38.176C36.9507 38.176 36.4441 38.144 35.9321 38.08C35.4201 38.0267 34.9241 37.9413 34.4441 37.824V29.68ZM44.0121 38H42.5241V29.68H44.0121V38ZM47.9131 30.64C48.2437 30.3733 48.6277 30.1707 49.0651 30.032C49.5131 29.8827 49.9397 29.808 50.3451 29.808C51.5397 29.808 52.4411 30.176 53.0491 30.912C53.6677 31.6373 53.9771 32.6507 53.9771 33.952C53.9771 34.5067 53.9024 35.04 53.7531 35.552C53.6037 36.064 53.3691 36.5173 53.0491 36.912C52.7397 37.3067 52.3451 37.6213 51.8651 37.856C51.3851 38.0907 50.8144 38.208 50.1531 38.208C49.3957 38.208 48.7664 38.0693 48.2651 37.792C47.7637 37.5147 47.3637 37.136 47.0651 36.656C46.7771 36.176 46.5744 35.616 46.4571 34.976C46.3397 34.336 46.2811 33.6587 46.2811 32.944C46.2811 32.016 46.3451 31.152 46.4731 30.352C46.6117 29.552 46.8571 28.848 47.2091 28.24C47.5611 27.632 48.0464 27.1307 48.6651 26.736C49.2944 26.3307 50.0997 26.0587 51.0811 25.92C51.3691 25.8773 51.6197 25.8453 51.8331 25.824C52.0571 25.792 52.2491 25.7653 52.4091 25.744C52.5797 25.7227 52.7344 25.7013 52.8731 25.68C53.0117 25.648 53.1557 25.616 53.3051 25.584L53.4651 26.928C53.3904 26.9493 53.3104 26.9653 53.2251 26.976C53.1504 26.9867 53.0384 27.0027 52.8891 27.024C52.7504 27.0453 52.5584 27.072 52.3131 27.104C52.0784 27.136 51.7691 27.1733 51.3851 27.216C50.3291 27.3333 49.5184 27.6533 48.9531 28.176C48.3877 28.6987 48.0411 29.52 47.9131 30.64ZM47.8171 33.184C47.8171 33.6853 47.8491 34.16 47.9131 34.608C47.9877 35.056 48.1104 35.4507 48.2811 35.792C48.4624 36.1333 48.7024 36.4053 49.0011 36.608C49.2997 36.8 49.6837 36.896 50.1531 36.896C50.5584 36.896 50.9051 36.8213 51.1931 36.672C51.4811 36.512 51.7157 36.2987 51.8971 36.032C52.0784 35.7653 52.2117 35.456 52.2971 35.104C52.3824 34.7413 52.4251 34.3573 52.4251 33.952C52.4251 33.5893 52.3877 33.2373 52.3131 32.896C52.2491 32.5547 52.1264 32.2507 51.9451 31.984C51.7637 31.7173 51.5184 31.504 51.2091 31.344C50.9104 31.184 50.5317 31.104 50.0731 31.104C49.6251 31.104 49.1931 31.2 48.7771 31.392C48.3717 31.584 48.0571 31.8187 47.8331 32.096C47.8224 32.2133 47.8171 32.3787 47.8171 32.592C47.8171 32.8053 47.8171 33.0027 47.8171 33.184ZM55.6207 33.856C55.6207 33.12 55.7274 32.48 55.9407 31.936C56.154 31.3813 56.4367 30.9227 56.7887 30.56C57.1407 30.1973 57.546 29.9253 58.0047 29.744C58.4634 29.5627 58.9327 29.472 59.4127 29.472C60.5327 29.472 61.3914 29.824 61.9887 30.528C62.586 31.2213 62.8847 32.2827 62.8847 33.712C62.8847 33.776 62.8847 33.8613 62.8847 33.968C62.8847 34.064 62.8794 34.1547 62.8687 34.24H57.1727C57.2367 35.104 57.4874 35.76 57.9247 36.208C58.362 36.656 59.0447 36.88 59.9727 36.88C60.4954 36.88 60.9327 36.8373 61.2847 36.752C61.6474 36.656 61.9194 36.5653 62.1007 36.48L62.3087 37.728C62.1274 37.824 61.8074 37.9253 61.3487 38.032C60.9007 38.1387 60.3887 38.192 59.8127 38.192C59.0874 38.192 58.458 38.0853 57.9247 37.872C57.402 37.648 56.97 37.344 56.6287 36.96C56.2874 36.576 56.0314 36.1227 55.8607 35.6C55.7007 35.0667 55.6207 34.4853 55.6207 33.856ZM61.3327 33.04C61.3434 32.368 61.1727 31.8187 60.8207 31.392C60.4794 30.9547 60.0047 30.736 59.3967 30.736C59.0554 30.736 58.7514 30.8053 58.4847 30.944C58.2287 31.072 58.01 31.2427 57.8287 31.456C57.6474 31.6693 57.5034 31.9147 57.3967 32.192C57.3007 32.4693 57.2367 32.752 57.2047 33.04H61.3327ZM70.7982 33.856C70.7982 32.8853 70.5582 32.1387 70.0782 31.616C69.5982 31.0933 68.9582 30.832 68.1582 30.832C67.7102 30.832 67.3582 30.848 67.1022 30.88C66.8569 30.912 66.6595 30.9493 66.5102 30.992V36.24C66.6915 36.3893 66.9529 36.5333 67.2942 36.672C67.6355 36.8107 68.0089 36.88 68.4142 36.88C68.8409 36.88 69.2035 36.8053 69.5022 36.656C69.8115 36.496 70.0622 36.2827 70.2542 36.016C70.4462 35.7387 70.5849 35.4187 70.6702 35.056C70.7555 34.6827 70.7982 34.2827 70.7982 33.856ZM72.3502 33.856C72.3502 34.4853 72.2649 35.0667 72.0942 35.6C71.9342 36.1333 71.6942 36.592 71.3742 36.976C71.0542 37.36 70.6595 37.6587 70.1902 37.872C69.7315 38.0853 69.2035 38.192 68.6062 38.192C68.1262 38.192 67.6995 38.128 67.3262 38C66.9635 37.872 66.6915 37.7493 66.5102 37.632V40.96H65.0222V29.936C65.3742 29.8507 65.8115 29.76 66.3342 29.664C66.8675 29.5573 67.4809 29.504 68.1742 29.504C68.8142 29.504 69.3902 29.6053 69.9022 29.808C70.4142 30.0107 70.8515 30.2987 71.2142 30.672C71.5769 31.0453 71.8542 31.504 72.0462 32.048C72.2489 32.5813 72.3502 33.184 72.3502 33.856ZM81.4361 29.68V38H79.9961V31.664C79.6761 32.0693 79.3241 32.544 78.9401 33.088C78.5561 33.632 78.1721 34.1973 77.7881 34.784C77.4041 35.36 77.0361 35.9307 76.6841 36.496C76.3321 37.0613 76.0281 37.5627 75.7721 38H74.4441V29.68H75.8841V35.664C76.1614 35.2053 76.4761 34.704 76.8281 34.16C77.1801 33.6053 77.5427 33.0613 77.9161 32.528C78.3001 31.984 78.6787 31.4667 79.0521 30.976C79.4361 30.4747 79.7934 30.0427 80.1241 29.68H81.4361ZM91.3101 38.192C90.6381 38.192 90.0461 38.0853 89.5341 37.872C89.0327 37.6587 88.6061 37.36 88.2541 36.976C87.9127 36.592 87.6567 36.1387 87.4861 35.616C87.3154 35.0827 87.2301 34.496 87.2301 33.856C87.2301 33.216 87.3207 32.6293 87.5021 32.096C87.6941 31.5627 87.9607 31.104 88.3021 30.72C88.6434 30.3253 89.0594 30.0213 89.5501 29.808C90.0514 29.584 90.6061 29.472 91.2141 29.472C91.5874 29.472 91.9607 29.504 92.3341 29.568C92.7074 29.632 93.0647 29.7333 93.4061 29.872L93.0701 31.136C92.8461 31.0293 92.5847 30.944 92.2861 30.88C91.9981 30.816 91.6887 30.784 91.3581 30.784C90.5261 30.784 89.8861 31.0453 89.4381 31.568C89.0007 32.0907 88.7821 32.8533 88.7821 33.856C88.7821 34.304 88.8301 34.7147 88.9261 35.088C89.0327 35.4613 89.1927 35.7813 89.4061 36.048C89.6301 36.3147 89.9127 36.5227 90.2541 36.672C90.5954 36.8107 91.0114 36.88 91.5021 36.88C91.8967 36.88 92.2541 36.8427 92.5741 36.768C92.8941 36.6933 93.1447 36.6133 93.3261 36.528L93.5341 37.776C93.4487 37.8293 93.3261 37.8827 93.1661 37.936C93.0061 37.9787 92.8247 38.016 92.6221 38.048C92.4194 38.0907 92.2007 38.1227 91.9661 38.144C91.7421 38.176 91.5234 38.192 91.3101 38.192ZM96.5876 36.88C96.6516 36.8907 96.7422 36.9013 96.8596 36.912C96.9769 36.9227 97.1102 36.9333 97.2596 36.944C97.4089 36.944 97.5636 36.9493 97.7236 36.96C97.8942 36.96 98.0542 36.96 98.2036 36.96C98.5129 36.96 98.8062 36.9387 99.0836 36.896C99.3716 36.8533 99.6169 36.7787 99.8196 36.672C100.033 36.5653 100.198 36.4267 100.316 36.256C100.444 36.0747 100.508 35.8453 100.508 35.568C100.508 35.3013 100.449 35.0827 100.332 34.912C100.225 34.7307 100.076 34.5867 99.8836 34.48C99.6916 34.3733 99.4622 34.2987 99.1956 34.256C98.9396 34.2133 98.6622 34.192 98.3636 34.192H96.5876V36.88ZM98.1716 33.088C98.4596 33.088 98.7209 33.072 98.9556 33.04C99.2009 32.9973 99.4089 32.928 99.5796 32.832C99.7609 32.736 99.8996 32.608 99.9956 32.448C100.102 32.288 100.156 32.0853 100.156 31.84C100.156 31.584 100.092 31.3813 99.9636 31.232C99.8356 31.0827 99.6649 30.9707 99.4516 30.896C99.2489 30.8107 99.0142 30.7573 98.7476 30.736C98.4916 30.704 98.2302 30.688 97.9636 30.688C97.7182 30.688 97.4676 30.6933 97.2116 30.704C96.9662 30.7147 96.7582 30.7253 96.5876 30.736V33.088H98.1716ZM98.1396 38.144C97.5102 38.144 96.9289 38.112 96.3956 38.048C95.8622 37.9947 95.4409 37.9307 95.1316 37.856V29.76C95.4409 29.6853 95.8622 29.6213 96.3956 29.568C96.9289 29.504 97.5102 29.472 98.1396 29.472C98.5769 29.472 99.0036 29.5093 99.4196 29.584C99.8356 29.6587 100.204 29.7867 100.524 29.968C100.844 30.1387 101.1 30.3787 101.292 30.688C101.494 30.9867 101.596 31.36 101.596 31.808C101.596 32.2133 101.494 32.56 101.292 32.848C101.089 33.136 100.817 33.36 100.476 33.52C100.934 33.68 101.297 33.92 101.564 34.24C101.841 34.5493 101.98 34.9867 101.98 35.552C101.98 36.0533 101.878 36.4693 101.676 36.8C101.484 37.1307 101.212 37.3973 100.86 37.6C100.518 37.8027 100.113 37.9413 99.6436 38.016C99.1742 38.1013 98.6729 38.144 98.1396 38.144ZM111.241 33.84C111.241 34.5013 111.145 35.0987 110.953 35.632C110.761 36.1653 110.489 36.624 110.137 37.008C109.796 37.392 109.385 37.6907 108.905 37.904C108.425 38.1067 107.903 38.208 107.337 38.208C106.772 38.208 106.249 38.1067 105.769 37.904C105.289 37.6907 104.873 37.392 104.521 37.008C104.18 36.624 103.913 36.1653 103.721 35.632C103.529 35.0987 103.433 34.5013 103.433 33.84C103.433 33.1893 103.529 32.5973 103.721 32.064C103.913 31.52 104.18 31.056 104.521 30.672C104.873 30.288 105.289 29.9947 105.769 29.792C106.249 29.5787 106.772 29.472 107.337 29.472C107.903 29.472 108.425 29.5787 108.905 29.792C109.385 29.9947 109.796 30.288 110.137 30.672C110.489 31.056 110.761 31.52 110.953 32.064C111.145 32.5973 111.241 33.1893 111.241 33.84ZM109.689 33.84C109.689 32.9013 109.476 32.16 109.049 31.616C108.633 31.0613 108.063 30.784 107.337 30.784C106.612 30.784 106.036 31.0613 105.609 31.616C105.193 32.16 104.985 32.9013 104.985 33.84C104.985 34.7787 105.193 35.5253 105.609 36.08C106.036 36.624 106.612 36.896 107.337 36.896C108.063 36.896 108.633 36.624 109.049 36.08C109.476 35.5253 109.689 34.7787 109.689 33.84ZM112.871 33.856C112.871 33.12 112.977 32.48 113.191 31.936C113.404 31.3813 113.687 30.9227 114.039 30.56C114.391 30.1973 114.796 29.9253 115.255 29.744C115.713 29.5627 116.183 29.472 116.663 29.472C117.783 29.472 118.641 29.824 119.239 30.528C119.836 31.2213 120.135 32.2827 120.135 33.712C120.135 33.776 120.135 33.8613 120.135 33.968C120.135 34.064 120.129 34.1547 120.119 34.24H114.423C114.487 35.104 114.737 35.76 115.175 36.208C115.612 36.656 116.295 36.88 117.223 36.88C117.745 36.88 118.183 36.8373 118.535 36.752C118.897 36.656 119.169 36.5653 119.351 36.48L119.559 37.728C119.377 37.824 119.057 37.9253 118.599 38.032C118.151 38.1387 117.639 38.192 117.063 38.192C116.337 38.192 115.708 38.0853 115.175 37.872C114.652 37.648 114.22 37.344 113.879 36.96C113.537 36.576 113.281 36.1227 113.111 35.6C112.951 35.0667 112.871 34.4853 112.871 33.856ZM118.583 33.04C118.593 32.368 118.423 31.8187 118.071 31.392C117.729 30.9547 117.255 30.736 116.647 30.736C116.305 30.736 116.001 30.8053 115.735 30.944C115.479 31.072 115.26 31.2427 115.079 31.456C114.897 31.6693 114.753 31.9147 114.647 32.192C114.551 32.4693 114.487 32.752 114.455 33.04H118.583ZM127.424 30.928H123.76V38H122.272V29.68H127.424V30.928ZM136.304 33.84C136.304 34.5013 136.208 35.0987 136.016 35.632C135.824 36.1653 135.552 36.624 135.2 37.008C134.858 37.392 134.448 37.6907 133.968 37.904C133.488 38.1067 132.965 38.208 132.4 38.208C131.834 38.208 131.312 38.1067 130.832 37.904C130.352 37.6907 129.936 37.392 129.584 37.008C129.242 36.624 128.976 36.1653 128.784 35.632C128.592 35.0987 128.496 34.5013 128.496 33.84C128.496 33.1893 128.592 32.5973 128.784 32.064C128.976 31.52 129.242 31.056 129.584 30.672C129.936 30.288 130.352 29.9947 130.832 29.792C131.312 29.5787 131.834 29.472 132.4 29.472C132.965 29.472 133.488 29.5787 133.968 29.792C134.448 29.9947 134.858 30.288 135.2 30.672C135.552 31.056 135.824 31.52 136.016 32.064C136.208 32.5973 136.304 33.1893 136.304 33.84ZM134.752 33.84C134.752 32.9013 134.538 32.16 134.112 31.616C133.696 31.0613 133.125 30.784 132.4 30.784C131.674 30.784 131.098 31.0613 130.672 31.616C130.256 32.16 130.048 32.9013 130.048 33.84C130.048 34.7787 130.256 35.5253 130.672 36.08C131.098 36.624 131.674 36.896 132.4 36.896C133.125 36.896 133.696 36.624 134.112 36.08C134.538 35.5253 134.752 34.7787 134.752 33.84ZM56.2223 50.68V51.928H53.5183V59H52.0303V51.928H49.3263V50.68H56.2223ZM63.5326 54.856C63.5326 53.8853 63.2926 53.1387 62.8126 52.616C62.3326 52.0933 61.6926 51.832 60.8926 51.832C60.4446 51.832 60.0926 51.848 59.8366 51.88C59.5912 51.912 59.3939 51.9493 59.2446 51.992V57.24C59.4259 57.3893 59.6872 57.5333 60.0286 57.672C60.3699 57.8107 60.7432 57.88 61.1486 57.88C61.5752 57.88 61.9379 57.8053 62.2366 57.656C62.5459 57.496 62.7966 57.2827 62.9886 57.016C63.1806 56.7387 63.3192 56.4187 63.4046 56.056C63.4899 55.6827 63.5326 55.2827 63.5326 54.856ZM65.0846 54.856C65.0846 55.4853 64.9992 56.0667 64.8286 56.6C64.6686 57.1333 64.4286 57.592 64.1086 57.976C63.7886 58.36 63.3939 58.6587 62.9246 58.872C62.4659 59.0853 61.9379 59.192 61.3406 59.192C60.8606 59.192 60.4339 59.128 60.0606 59C59.6979 58.872 59.4259 58.7493 59.2446 58.632V61.96H57.7566V50.936C58.1086 50.8507 58.5459 50.76 59.0686 50.664C59.6019 50.5573 60.2152 50.504 60.9086 50.504C61.5486 50.504 62.1246 50.6053 62.6366 50.808C63.1486 51.0107 63.5859 51.2987 63.9486 51.672C64.3112 52.0453 64.5886 52.504 64.7806 53.048C64.9832 53.5813 65.0846 54.184 65.0846 54.856ZM66.7144 54.856C66.7144 54.12 66.8211 53.48 67.0344 52.936C67.2478 52.3813 67.5304 51.9227 67.8824 51.56C68.2344 51.1973 68.6398 50.9253 69.0984 50.744C69.5571 50.5627 70.0264 50.472 70.5064 50.472C71.6264 50.472 72.4851 50.824 73.0824 51.528C73.6798 52.2213 73.9784 53.2827 73.9784 54.712C73.9784 54.776 73.9784 54.8613 73.9784 54.968C73.9784 55.064 73.9731 55.1547 73.9624 55.24H68.2664C68.3304 56.104 68.5811 56.76 69.0184 57.208C69.4558 57.656 70.1384 57.88 71.0664 57.88C71.5891 57.88 72.0264 57.8373 72.3784 57.752C72.7411 57.656 73.0131 57.5653 73.1944 57.48L73.4024 58.728C73.2211 58.824 72.9011 58.9253 72.4424 59.032C71.9944 59.1387 71.4824 59.192 70.9064 59.192C70.1811 59.192 69.5518 59.0853 69.0184 58.872C68.4958 58.648 68.0638 58.344 67.7224 57.96C67.3811 57.576 67.1251 57.1227 66.9544 56.6C66.7944 56.0667 66.7144 55.4853 66.7144 54.856ZM72.4264 54.04C72.4371 53.368 72.2664 52.8187 71.9144 52.392C71.5731 51.9547 71.0984 51.736 70.4904 51.736C70.1491 51.736 69.8451 51.8053 69.5784 51.944C69.3224 52.072 69.1038 52.2427 68.9224 52.456C68.7411 52.6693 68.5971 52.9147 68.4904 53.192C68.3944 53.4693 68.3304 53.752 68.2984 54.04H72.4264ZM82.9319 59H81.4439V55.32H77.6039V59H76.1159V50.68H77.6039V54.072H81.4439V50.68H82.9319V59ZM85.0269 54.856C85.0269 54.12 85.1336 53.48 85.3469 52.936C85.5603 52.3813 85.8429 51.9227 86.1949 51.56C86.5469 51.1973 86.9523 50.9253 87.4109 50.744C87.8696 50.5627 88.3389 50.472 88.8189 50.472C89.9389 50.472 90.7976 50.824 91.3949 51.528C91.9923 52.2213 92.2909 53.2827 92.2909 54.712C92.2909 54.776 92.2909 54.8613 92.2909 54.968C92.2909 55.064 92.2856 55.1547 92.2749 55.24H86.5789C86.6429 56.104 86.8936 56.76 87.3309 57.208C87.7683 57.656 88.4509 57.88 89.3789 57.88C89.9016 57.88 90.3389 57.8373 90.6909 57.752C91.0536 57.656 91.3256 57.5653 91.5069 57.48L91.7149 58.728C91.5336 58.824 91.2136 58.9253 90.7549 59.032C90.3069 59.1387 89.7949 59.192 89.2189 59.192C88.4936 59.192 87.8643 59.0853 87.3309 58.872C86.8083 58.648 86.3763 58.344 86.0349 57.96C85.6936 57.576 85.4376 57.1227 85.2669 56.6C85.1069 56.0667 85.0269 55.4853 85.0269 54.856ZM90.7389 54.04C90.7496 53.368 90.5789 52.8187 90.2269 52.392C89.8856 51.9547 89.4109 51.736 88.8029 51.736C88.4616 51.736 88.1576 51.8053 87.8909 51.944C87.6349 52.072 87.4163 52.2427 87.2349 52.456C87.0536 52.6693 86.9096 52.9147 86.8029 53.192C86.7069 53.4693 86.6429 53.752 86.6109 54.04H90.7389ZM100.204 54.856C100.204 53.8853 99.9644 53.1387 99.4844 52.616C99.0044 52.0933 98.3644 51.832 97.5644 51.832C97.1164 51.832 96.7644 51.848 96.5084 51.88C96.2631 51.912 96.0658 51.9493 95.9164 51.992V57.24C96.0978 57.3893 96.3591 57.5333 96.7004 57.672C97.0418 57.8107 97.4151 57.88 97.8204 57.88C98.2471 57.88 98.6098 57.8053 98.9084 57.656C99.2178 57.496 99.4684 57.2827 99.6604 57.016C99.8524 56.7387 99.9911 56.4187 100.076 56.056C100.162 55.6827 100.204 55.2827 100.204 54.856ZM101.756 54.856C101.756 55.4853 101.671 56.0667 101.5 56.6C101.34 57.1333 101.1 57.592 100.78 57.976C100.46 58.36 100.066 58.6587 99.5964 58.872C99.1378 59.0853 98.6098 59.192 98.0124 59.192C97.5324 59.192 97.1058 59.128 96.7324 59C96.3698 58.872 96.0978 58.7493 95.9164 58.632V61.96H94.4284V50.936C94.7804 50.8507 95.2178 50.76 95.7404 50.664C96.2738 50.5573 96.8871 50.504 97.5804 50.504C98.2204 50.504 98.7964 50.6053 99.3084 50.808C99.8204 51.0107 100.258 51.2987 100.62 51.672C100.983 52.0453 101.26 52.504 101.452 53.048C101.655 53.5813 101.756 54.184 101.756 54.856ZM106.666 57.928C107.018 57.928 107.328 57.9227 107.594 57.912C107.872 57.8907 108.101 57.8587 108.282 57.816V55.336C108.176 55.2827 108 55.24 107.754 55.208C107.52 55.1653 107.232 55.144 106.89 55.144C106.666 55.144 106.426 55.16 106.17 55.192C105.925 55.224 105.696 55.2933 105.482 55.4C105.28 55.496 105.109 55.6347 104.97 55.816C104.832 55.9867 104.762 56.216 104.762 56.504C104.762 57.0373 104.933 57.4107 105.274 57.624C105.616 57.8267 106.08 57.928 106.666 57.928ZM106.538 50.472C107.136 50.472 107.637 50.552 108.042 50.712C108.458 50.8613 108.789 51.08 109.034 51.368C109.29 51.6453 109.472 51.9813 109.578 52.376C109.685 52.76 109.738 53.1867 109.738 53.656V58.856C109.61 58.8773 109.429 58.9093 109.194 58.952C108.97 58.984 108.714 59.016 108.426 59.048C108.138 59.08 107.824 59.1067 107.482 59.128C107.152 59.16 106.821 59.176 106.49 59.176C106.021 59.176 105.589 59.128 105.194 59.032C104.8 58.936 104.458 58.7867 104.17 58.584C103.882 58.3707 103.658 58.0933 103.498 57.752C103.338 57.4107 103.258 57 103.258 56.52C103.258 56.0613 103.349 55.6667 103.53 55.336C103.722 55.0053 103.978 54.7387 104.298 54.536C104.618 54.3333 104.992 54.184 105.418 54.088C105.845 53.992 106.293 53.944 106.762 53.944C106.912 53.944 107.066 53.9547 107.226 53.976C107.386 53.9867 107.536 54.008 107.674 54.04C107.824 54.0613 107.952 54.0827 108.058 54.104C108.165 54.1253 108.24 54.1413 108.282 54.152V53.736C108.282 53.4907 108.256 53.2507 108.202 53.016C108.149 52.7707 108.053 52.5573 107.914 52.376C107.776 52.184 107.584 52.0347 107.338 51.928C107.104 51.8107 106.794 51.752 106.41 51.752C105.92 51.752 105.488 51.7893 105.114 51.864C104.752 51.928 104.48 51.9973 104.298 52.072L104.122 50.84C104.314 50.7547 104.634 50.6747 105.082 50.6C105.53 50.5147 106.016 50.472 106.538 50.472Z" fill="#2C332F"/>
</svg>
